<svg xmlns="http://www.w3.org/2000/svg" viewBox="0 0 512 512">
  <defs>
    <linearGradient id="g1" x1="0%" y1="0%" x2="100%" y2="100%">
      <stop offset="0%" stop-color="#00f0ff"/>
      <stop offset="100%" stop-color="#00ff88"/>
    </linearGradient>
    <linearGradient id="g2" x1="0%" y1="0%" x2="100%" y2="100%">
      <stop offset="0%" stop-color="#b44aff"/>
      <stop offset="100%" stop-color="#ff006e"/>
    </linearGradient>
  </defs>
  <rect width="512" height="512" rx="96" fill="#06060a"/>
  <rect x="8" y="8" width="496" height="496" rx="88" fill="none" stroke="url(#g1)" stroke-width="4" opacity="0.3"/>
  <!-- Circuit lines -->
  <line x1="100" y1="160" x2="412" y2="160" stroke="url(#g1)" stroke-width="2" opacity="0.15"/>
  <line x1="100" y1="256" x2="412" y2="256" stroke="url(#g1)" stroke-width="2" opacity="0.15"/>
  <line x1="100" y1="352" x2="412" y2="352" stroke="url(#g1)" stroke-width="2" opacity="0.15"/>
  <line x1="180" y1="80" x2="180" y2="432" stroke="url(#g2)" stroke-width="2" opacity="0.15"/>
  <line x1="332" y1="80" x2="332" y2="432" stroke="url(#g2)" stroke-width="2" opacity="0.15"/>
  <!-- CPU chip -->
  <rect x="170" y="170" width="172" height="172" rx="20" fill="#0c0c14" stroke="url(#g1)" stroke-width="3"/>
  <rect x="190" y="190" width="132" height="132" rx="12" fill="none" stroke="url(#g1)" stroke-width="2" opacity="0.5"/>
  <!-- Pins -->
  <rect x="200" y="155" width="12" height="20" rx="2" fill="url(#g1)" opacity="0.7"/>
  <rect x="230" y="155" width="12" height="20" rx="2" fill="url(#g1)" opacity="0.7"/>
  <rect x="260" y="155" width="12" height="20" rx="2" fill="url(#g1)" opacity="0.7"/>
  <rect x="290" y="155" width="12" height="20" rx="2" fill="url(#g1)" opacity="0.7"/>
  <rect x="200" y="337" width="12" height="20" rx="2" fill="url(#g1)" opacity="0.7"/>
  <rect x="230" y="337" width="12" height="20" rx="2" fill="url(#g1)" opacity="0.7"/>
  <rect x="260" y="337" width="12" height="20" rx="2" fill="url(#g1)" opacity="0.7"/>
  <rect x="290" y="337" width="12" height="20" rx="2" fill="url(#g1)" opacity="0.7"/>
  <rect x="155" y="200" width="20" height="12" rx="2" fill="url(#g2)" opacity="0.7"/>
  <rect x="155" y="230" width="20" height="12" rx="2" fill="url(#g2)" opacity="0.7"/>
  <rect x="155" y="260" width="20" height="12" rx="2" fill="url(#g2)" opacity="0.7"/>
  <rect x="155" y="290" width="20" height="12" rx="2" fill="url(#g2)" opacity="0.7"/>
  <rect x="337" y="200" width="20" height="12" rx="2" fill="url(#g2)" opacity="0.7"/>
  <rect x="337" y="230" width="20" height="12" rx="2" fill="url(#g2)" opacity="0.7"/>
  <rect x="337" y="260" width="20" height="12" rx="2" fill="url(#g2)" opacity="0.7"/>
  <rect x="337" y="290" width="20" height="12" rx="2" fill="url(#g2)" opacity="0.7"/>
  <!-- Center glow -->
  <circle cx="256" cy="256" r="30" fill="url(#g1)" opacity="0.15"/>
  <circle cx="256" cy="256" r="15" fill="url(#g1)" opacity="0.4"/>
  <!-- Text -->
  <text x="256" y="440" font-family="Arial,sans-serif" font-size="48" font-weight="900" fill="url(#g1)" text-anchor="middle" letter-spacing="6">DIY</text>
  <text x="256" y="480" font-family="Arial,sans-serif" font-size="20" font-weight="500" fill="#666" text-anchor="middle" letter-spacing="8">SMARTHOME</text>
</svg>